<svg width="24" height="24" viewBox="0 0 24 24" fill="none" xmlns="http://www.w3.org/2000/svg">
<circle cx="12" cy="12" r="12" fill="white"/>
<path fill-rule="evenodd" clip-rule="evenodd" d="M21.8667 12.375C21.8667 16.4481 19.221 19.75 15.3161 19.75C13.3396 19.75 8.06087 18.7757 6.51029 18.0442C3.62626 16.8443 2 15.0987 2 12.375C2 9.65135 3.62626 7.90567 6.51029 6.70584C8.06087 5.97434 13.3396 5 15.3161 5C19.221 5 21.8667 8.3019 21.8667 12.375ZM8.12102 12.375C8.12102 13.5301 7.20752 14.4664 6.08065 14.4664C4.95379 14.4664 4.04029 13.5301 4.04029 12.375C4.04029 11.2199 4.95379 10.2836 6.08065 10.2836C7.20752 10.2836 8.12102 11.2199 8.12102 12.375ZM19.4386 12.375C19.4386 14.6243 17.5855 16.4478 15.2997 16.4478C13.0138 16.4478 11.1608 14.6243 11.1608 12.375C11.1608 10.1257 13.0138 8.30224 15.2997 8.30224C17.5855 8.30224 19.4386 10.1257 19.4386 12.375Z" fill="#2857A7"/>
</svg>
