<svg width="133" height="24" viewBox="0 0 133 24" fill="none" xmlns="http://www.w3.org/2000/svg">
<path fill-rule="evenodd" clip-rule="evenodd" d="M32.3256 12C32.3256 18.6274 28.0206 24 21.6669 24C18.4509 24 9.86176 22.4146 7.33877 21.2244C2.64611 19.2721 0 16.4317 0 12C0 7.56829 2.64611 4.72787 7.33877 2.77561C9.86176 1.58537 18.4509 0 21.6669 0C28.0206 0 32.3256 5.37258 32.3256 12ZM9.95963 12C9.95963 13.8794 8.47325 15.403 6.63971 15.403C4.80617 15.403 3.31979 13.8794 3.31979 12C3.31979 10.1206 4.80617 8.59702 6.63971 8.59702C8.47325 8.59702 9.95963 10.1206 9.95963 12ZM28.3747 12C28.3747 15.6599 25.3595 18.6269 21.6402 18.6269C17.9208 18.6269 14.9057 15.6599 14.9057 12C14.9057 8.34008 17.9208 5.37313 21.6402 5.37313C25.3595 5.37313 28.3747 8.34008 28.3747 12Z" fill="white"/>
<path d="M85.8886 1.01414H88.3332V7.09864C89.0581 6.25357 90.6322 5.74653 92.1441 5.74653C94.109 5.74653 95.639 6.19238 96.5003 7.07379C97.3617 7.9552 97.7851 9.17338 97.7851 10.7112V18.5754H95.3405V11.3028C95.3405 10.2706 95.0496 9.48663 94.483 8.93274L94.4806 8.93039C93.9286 8.36131 93.2672 7.94371 92.0886 7.94371C90.9095 7.95927 88.3847 8.28174 88.3332 11.6205V18.5754H85.8886V1.01414Z" fill="white"/>
<path d="M125.679 2.53263H128.147V5.74653H131.966V7.82615H128.147V14.5681C128.147 15.253 128.272 15.7123 128.495 15.9772C128.715 16.2405 129.052 16.3816 129.529 16.3816C130.035 16.3816 130.582 16.2334 131.174 15.9294L132.203 17.6734L132.119 17.7273C131.144 18.3536 130.146 18.6701 129.129 18.6701C128.112 18.6701 127.278 18.3696 126.638 17.7598L126.636 17.7586C125.991 17.1272 125.679 16.1896 125.679 14.9704V7.82615H123.911V5.74653H125.679V2.53263Z" fill="white"/>
<path d="M58.6365 8.12164V5.73182C57.0693 5.73182 55.2173 5.80474 54.2052 7.09056V5.80474H51.7606V18.5754H54.2052V11.8529C54.3136 10.6839 54.7493 9.76261 55.5069 9.07812C56.2634 8.39467 57.2583 8.0704 58.5055 8.11677L58.6365 8.12164Z" fill="white"/>
<path fill-rule="evenodd" clip-rule="evenodd" d="M37.3222 12.1614C37.3223 6.57619 41.7483 5.74653 43.2636 5.74653C44.3256 5.74653 46.1258 5.91554 47.3634 7.11863V5.80474H49.8316V17.1709C49.8316 18.389 49.56 19.4608 49.0128 20.3822C48.4815 21.3032 47.7243 22.0061 46.7448 22.4899C45.7657 22.9893 44.63 23.2369 43.3412 23.2369C41.4739 23.2369 39.7353 22.6434 38.1282 21.4614L38.0351 21.3929L39.1364 19.5591L39.2493 19.6521C39.8524 20.1488 40.4762 20.5117 41.1209 20.7428L41.1234 20.7437C41.7675 20.99 42.4749 21.114 43.2469 21.114C44.5108 21.114 45.5066 20.7589 46.2483 20.0599C46.989 19.3618 47.3634 18.305 47.3634 17.2419L47.2444 17.3193C46.1849 18.0093 45.3154 18.5754 43.5298 18.5754C40.7382 18.5754 37.3222 17.7465 37.3222 12.1614ZM47.3634 12.2323C47.3634 9.71967 45.6207 7.94371 43.6003 7.94371C41.4116 7.94371 39.649 9.97188 39.649 12.2315C39.649 14.7101 41.2432 16.3944 43.5298 16.3944C45.515 16.3944 47.3634 15.2113 47.3634 12.2323Z" fill="white"/>
<path fill-rule="evenodd" clip-rule="evenodd" d="M64.382 5.73376C63.3192 5.73376 62.3934 5.869 61.607 6.14278C61.1917 6.28182 60.3749 6.68158 60.0998 6.81822V9.17966L60.1636 9.13571C61.4522 8.2473 62.7084 7.80925 63.9341 7.80925C64.9533 7.80925 65.7034 8.04967 66.2061 8.50972L66.209 8.51225C66.725 8.95628 66.9899 9.59587 66.9899 10.4509V10.9157L63.1563 10.9157L63.1549 10.9157C61.6607 10.9317 60.4751 11.2749 59.6132 11.9604C58.7633 12.6331 58.3394 13.5545 58.3394 14.7101C58.3394 15.4569 58.5176 16.1342 58.8757 16.7388L58.877 16.741C59.2512 17.3453 59.7718 17.8181 60.4352 18.1593L60.4363 18.1598C61.1166 18.5013 61.8986 18.6701 62.7791 18.6701C64.6341 18.6701 65.8241 18.2536 67.0135 17.2395V18.5754H69.4349L69.4109 10.214L69.4109 10.2129C69.3949 8.81294 68.9528 7.71131 68.0727 6.92565C67.1937 6.12524 65.9574 5.73376 64.382 5.73376ZM60.6662 14.6154C60.6662 14.0046 60.8857 13.5759 61.3138 13.3033C61.7714 13.0221 62.4816 12.8729 63.4627 12.8729H66.9899V13.9892C66.8527 14.7689 66.4416 15.3991 65.7479 15.8836C65.0656 16.3554 64.2276 16.5946 63.227 16.5946C62.4287 16.5946 61.8067 16.4098 61.3479 16.0532C60.8933 15.6999 60.6662 15.2251 60.6662 14.6154Z" fill="white"/>
<path fill-rule="evenodd" clip-rule="evenodd" d="M73.8401 7.09864C75.2524 5.91554 76.8978 5.74518 77.997 5.73376C79.1799 5.72146 80.5762 6.00681 81.5089 6.55567C82.4412 7.1043 83.1647 7.87132 83.6783 8.85402C84.1919 9.83695 84.447 10.9619 84.447 12.2256C84.447 13.4735 84.1919 14.5904 83.6786 15.5729L83.5664 15.5146L83.6783 15.5735L83.6786 15.5729C83.1805 16.5405 82.4646 17.2997 81.5325 17.8482L81.5319 17.8485C80.6147 18.3816 79.8257 18.6464 78.3809 18.6464C77.1044 18.6464 75.4208 18.4226 73.8401 17.2395V23.324H71.3955V5.80474H73.8401V7.09864ZM75.8052 8.40681C76.4286 8.04062 77.129 7.85657 77.9095 7.85657C78.6902 7.85657 79.3823 8.04071 79.9894 8.4064C80.5975 8.77264 81.0769 9.28378 81.428 9.94284C81.7788 10.6012 81.9552 11.3375 81.9552 12.1546C81.9552 12.9879 81.7786 13.732 81.428 14.39L81.4269 14.3921C81.092 15.0492 80.6137 15.5596 79.9906 15.9258L79.9894 15.9265C79.3823 16.2922 78.6902 16.4763 77.9095 16.4763C77.129 16.4763 76.4286 16.2922 75.8052 15.926C75.1969 15.5595 74.7178 15.0559 74.367 14.413C74.0168 13.7555 73.8401 13.0038 73.8401 12.1546C73.8401 11.3375 74.0166 10.6012 74.3673 9.94284C74.7184 9.28403 75.1975 8.77304 75.8052 8.40681Z" fill="white"/>
<path fill-rule="evenodd" clip-rule="evenodd" d="M105.425 5.73376C104.195 5.73376 103.096 6.01445 102.132 6.57882C101.17 7.12674 100.415 7.89282 99.8695 8.87486L99.8691 8.87548C99.339 9.84315 99.0757 10.9532 99.0757 12.2019C99.0757 13.4507 99.339 14.5683 99.8687 15.5513L99.8695 15.5527C100.415 16.5349 101.17 17.3012 102.133 17.8491L102.135 17.8503C103.115 18.3821 104.228 18.6464 105.472 18.6464C106.539 18.6464 107.515 18.4624 108.396 18.0924C109.178 17.7643 109.859 17.3154 110.44 16.7455L109.361 15.0008L109.27 15.0952C108.811 15.5714 108.268 15.9403 107.639 16.202L107.638 16.2024C107.026 16.4634 106.36 16.5946 105.637 16.5946C104.548 16.5946 103.635 16.2722 102.891 15.6316C102.195 15.02 101.752 14.2057 101.567 13.1805H111.384L111.396 13.0664C111.412 12.9021 111.42 12.6603 111.42 12.3439C111.42 10.2892 110.92 8.67054 109.904 7.50468C108.884 6.31814 107.383 5.73376 105.425 5.73376ZM101.539 11.2233C101.695 10.1963 102.108 9.38156 102.775 8.77038C103.488 8.13124 104.376 7.80925 105.448 7.80925C106.553 7.80925 107.432 8.13201 108.095 8.76798L108.096 8.76903C108.732 9.36401 109.096 10.1779 109.179 11.2233H101.539Z" fill="white"/>
<path d="M111.446 5.80474H114.298L117.32 10.2966L120.387 5.80474H123.119L118.933 12.0355L123.428 18.5754H120.551L117.316 13.7502L113.919 18.5754H111.136L115.704 12.0355L111.446 5.80474Z" fill="white"/>
</svg>
